<svg id="visual" viewBox="0 0 960 540" width="960" height="540" xmlns="http://www.w3.org/2000/svg" xmlns:xlink="http://www.w3.org/1999/xlink" version="1.1"><rect x="0" y="0" width="960" height="540" fill="#922d50"></rect><path d="M0 420L8.8 426.2C17.7 432.3 35.3 444.7 53.2 454.3C71 464 89 471 106.8 471.8C124.7 472.7 142.3 467.3 160 465C177.7 462.7 195.3 463.3 213.2 469.2C231 475 249 486 266.8 491.5C284.7 497 302.3 497 320 487.2C337.7 477.3 355.3 457.7 373.2 455.3C391 453 409 468 426.8 469C444.7 470 462.3 457 480 453.8C497.7 450.7 515.3 457.3 533.2 453.2C551 449 569 434 586.8 432.7C604.7 431.3 622.3 443.7 640 448.7C657.7 453.7 675.3 451.3 693.2 450.2C711 449 729 449 746.8 456.5C764.7 464 782.3 479 800 485.5C817.7 492 835.3 490 853.2 486.8C871 483.7 889 479.3 906.8 468.2C924.7 457 942.3 439 951.2 430L960 421L960 541L951.2 541C942.3 541 924.7 541 906.8 541C889 541 871 541 853.2 541C835.3 541 817.7 541 800 541C782.3 541 764.7 541 746.8 541C729 541 711 541 693.2 541C675.3 541 657.7 541 640 541C622.3 541 604.7 541 586.8 541C569 541 551 541 533.2 541C515.3 541 497.7 541 480 541C462.3 541 444.7 541 426.8 541C409 541 391 541 373.2 541C355.3 541 337.7 541 320 541C302.3 541 284.7 541 266.8 541C249 541 231 541 213.2 541C195.3 541 177.7 541 160 541C142.3 541 124.7 541 106.8 541C89 541 71 541 53.2 541C35.3 541 17.7 541 8.8 541L0 541Z" fill="#501537" stroke-linecap="round" stroke-linejoin="miter"></path></svg>